<svg width="1500" height="1400" viewBox="0 0 1500 1400" fill="none" xmlns="http://www.w3.org/2000/svg">
<g clip-path="url(#clip0_1623_175)">
<path d="M435.525 1345.5L123.37 1074.32L1441 1074.32L435.525 1345.5Z" fill="#EDF2F7"/>
<path d="M546.362 434.739C556.405 484.63 521.799 534.073 499.788 570.368C509.408 530.584 421.391 542.24 396.761 495.136C386.88 476.238 377.256 441.709 377.256 441.709L406.071 423.801L372.894 429.647C361.11 414.524 354.187 378.593 346.916 342.784C340.459 310.978 342.962 272.48 336.299 258.077C354.179 269.513 437.141 292.579 437.141 292.579L445.477 345.677L454.688 307.586C470.999 318.579 488.995 337.269 501.424 366.074C509.158 383.999 509.723 408.373 514.972 416.768L521.522 389.681C525.893 393.503 541.984 412.991 546.362 434.739Z" fill="#EDF2F7"/>
<path d="M552.134 592.014C563.919 636.097 512.05 691.524 485.025 726.702C470.766 699.536 399.509 702.544 369.99 662.528C358.148 646.475 346.745 616.248 346.745 616.248L381.88 596.987L341.548 605.795C327.365 593.359 319.253 561.577 310.719 529.943C303.14 501.845 306.496 466.741 298.523 454.413C320.14 462.867 420.685 474.946 420.685 474.946L430.369 522.113L441.867 486.666C461.582 494.885 483.279 509.891 498.133 534.64C507.378 550.041 507.863 572.038 514.168 579.079L522.344 553.872C527.619 556.868 546.997 572.797 552.134 592.014Z" fill="#CBD5E0"/>
<path d="M1128.59 868.09C1102.89 888.316 1069.71 864.609 1045.93 850.536C1069.48 851.717 1047.81 767.714 1069.44 733.744C1078.12 720.116 1095.44 703.492 1095.44 703.492L1110.28 728.065L1101.32 696.703C1107.59 681.991 1126.15 667.727 1144.58 653.149C1160.95 640.2 1182.55 634.66 1189.32 625.125C1186.13 645.058 1187.82 731.311 1187.82 731.311L1160.07 750.527L1182.61 751.657C1179.4 769.957 1172.24 791.51 1158.55 809.699C1150.04 821.017 1136.73 826.636 1133.03 833.534L1149.06 834.338C1147.71 839.424 1139.79 859.272 1128.59 868.09Z" fill="#CBD5E0"/>
<path d="M1121.36 1115.44C1075.64 1093.09 1057.42 1035.56 1041.98 996.016C1067.72 1027.84 1111.97 950.863 1164.34 959.939C1185.35 963.58 1218.62 976.927 1218.62 976.927L1215.33 1010.69L1230.85 980.796C1250.02 980.632 1282.76 996.976 1315.61 1012.97C1344.79 1027.18 1373.84 1052.57 1389.33 1056.03C1369.38 1063.28 1300.63 1115.13 1300.63 1115.13L1253.41 1089.47L1278.05 1119.94C1259.41 1126.21 1233.63 1129.14 1203.2 1121.5C1184.27 1116.74 1164.57 1102.38 1154.71 1101.44L1172.24 1123.11C1166.55 1124.25 1141.29 1125.19 1121.36 1115.44Z" fill="#CBD5E0"/>
<path d="M1139.31 1033.56C1089.37 1033.6 1045.37 963.134 1015.78 924.644C1048.52 917.217 1065.42 841.012 1116.05 821.068C1136.37 813.067 1171.54 809.524 1171.54 809.524L1182.01 852.106L1184.06 806.972C1201.21 795.476 1237.11 795.851 1272.97 795.739C1304.81 795.639 1340.99 809.077 1356.28 804.119C1341.25 824.598 1300.15 927.526 1300.15 927.526L1247.54 924.48L1281.78 946.625C1267.54 965.159 1245.56 983.877 1215.2 992.614C1196.31 998.052 1172.91 992.368 1163.69 997.052L1188.04 1012.8C1183.39 1017.53 1161.08 1033.54 1139.31 1033.56Z" fill="#EDF2F7"/>
<rect x="496.445" y="133" width="574.711" height="976.901" rx="20" fill="#2D3748"/>
<rect x="526.637" y="155.644" width="514.329" height="918.675" rx="10" fill="#EDF2F7"/>
<path d="M699.695 155.644H867.903L861.729 170.345C858.61 177.77 851.343 182.6 843.289 182.6H724.91C717.1 182.6 710.004 178.054 706.74 170.958L699.695 155.644Z" fill="#2D3748"/>
<rect x="573" y="242.982" width="426.99" height="194.086" rx="30" fill="#F7FAFC"/>
<rect x="573" y="724.963" width="426.99" height="194.086" rx="30" fill="#E2E8F0"/>
<rect x="573" y="484.512" width="194.086" height="194.086" rx="30" fill="#F7FAFC"/>
<rect x="805.902" y="484.512" width="194.086" height="194.086" rx="30" fill="#E2E8F0"/>
<rect x="902.949" y="317.382" width="426.99" height="194.086" rx="30" fill="#A0AEC0"/>
<path d="M935.836 556.216V511.468H1004.31L935.836 556.216Z" fill="#718096"/>
<circle cx="992.984" cy="413.886" r="56.6085" fill="#F7FAFC"/>
<rect x="1070.08" y="409.034" width="215.651" height="10.7826" fill="#F7FAFC"/>
<rect x="1070.08" y="409.034" width="87.3388" height="10.7826" fill="#718096"/>
<path d="M1029.11 414.425L975.732 445.241L975.732 383.61L1029.11 414.425Z" fill="#D62F2F"/>
<path d="M660.969 758.15L641.612 830.39L170.999 823.099L190.355 750.859L660.969 758.15Z" fill="#A0AEC0"/>
<path d="M196.789 678.692H271.577L386.338 1135.16H311.55L196.789 678.692Z" fill="#A0AEC0"/>
<path d="M196.695 678.56H271.483L352.806 988.157H274.15L196.695 678.56Z" fill="#718096"/>
<path d="M471.438 678.692H546.226L660.986 1135.16H586.198L471.438 678.692Z" fill="#A0AEC0"/>
<path d="M686.758 991.539L667.401 1063.78L196.788 1056.49L216.144 984.248L686.758 991.539Z" fill="#A0AEC0"/>
<path d="M508.832 828.913L584.265 829.558L660.987 1135.8H586.199L508.832 828.913Z" fill="#718096"/>
<path d="M292.207 1058.43L367.64 1059.08L387.626 1135.16H311.549L292.207 1058.43Z" fill="#718096"/>
<path d="M471.438 678.692H546.226L566.857 756.059H490.135L471.438 678.692Z" fill="#718096"/>
<path d="M534.404 1033.53C534.14 1034.17 533.549 1035.01 532.651 1036.01C531.761 1036.99 530.597 1038.09 529.225 1039.24C526.482 1041.54 522.93 1044.04 519.124 1046.22C515.317 1048.4 511.274 1050.26 507.546 1051.31C503.802 1052.37 500.46 1052.58 497.999 1051.57C495.576 1050.57 494.141 1048.45 493.409 1045.61C492.674 1042.78 492.666 1039.29 493.062 1035.71C493.854 1028.56 496.243 1021.22 497.417 1018.35C498.504 1015.7 501.475 1014.01 505.604 1013.53C509.714 1013.05 514.849 1013.8 520.02 1015.92C525.192 1018.04 529.375 1021.11 531.965 1024.34C534.567 1027.58 535.49 1030.88 534.404 1033.53Z" fill="#E2E8F0" stroke="#E2E8F0"/>
<path d="M424.746 1173.6C423.64 1176.48 420.612 1182.41 416.562 1187.1C414.537 1189.44 412.28 1191.45 409.908 1192.62C407.547 1193.79 405.09 1194.13 402.609 1193.17C400.118 1192.22 397.964 1189.98 396.17 1186.98C394.381 1183.99 392.983 1180.31 391.977 1176.55C390.972 1172.79 390.364 1168.98 390.147 1165.75C389.928 1162.49 390.112 1159.91 390.63 1158.56C391.148 1157.21 391.984 1156.32 393.095 1155.79C394.223 1155.25 395.671 1155.05 397.427 1155.16C400.948 1155.38 405.529 1156.81 410.811 1158.84C416.062 1160.86 420.101 1163.22 422.544 1165.76C424.972 1168.28 425.777 1170.92 424.746 1173.6Z" fill="#E2E8F0" stroke="#E2E8F0"/>
<path d="M515.883 988.418L541.476 998.46L531.988 1022.64C529.215 1029.71 521.237 1033.19 514.17 1030.42C507.103 1027.64 503.622 1019.67 506.395 1012.6L515.883 988.418Z" fill="#A0AEC0"/>
<path d="M406.051 1129.97L431.862 1139.44L422.917 1163.82C420.303 1170.95 412.406 1174.61 405.278 1172C398.15 1169.38 394.492 1161.48 397.106 1154.36L406.051 1129.97Z" fill="#A0AEC0"/>
<path d="M410.176 984.099C400.796 986.483 391.259 980.812 388.875 971.432L382.338 945.71C379.954 936.33 400.796 929.613 410.176 927.229L555.403 883.644C564.784 881.26 574.32 886.932 576.704 896.312L583.242 922.033C585.626 931.413 579.954 940.95 570.574 943.334L410.176 984.099Z" fill="black"/>
<rect x="564.148" y="864.319" width="48.4337" height="157.265" rx="15" transform="rotate(24.145 564.148 864.319)" fill="black"/>
<rect x="382.77" y="787.672" width="34.4447" height="131.99" rx="15" transform="rotate(-29.2207 382.77 787.672)" fill="#4A5568"/>
<rect x="350.09" y="723.406" width="42.0508" height="62.1267" rx="15" transform="rotate(6.69671 350.09 723.406)" fill="#CBD5E0"/>
<path d="M314.383 984.178C298.321 980.111 288.598 963.794 292.664 947.732L294.006 942.433C298.073 926.372 314.39 916.648 330.452 920.715L481.239 958.894C489.27 960.928 494.132 969.086 492.099 977.117L483.393 1011.5C481.36 1019.53 473.201 1024.39 465.17 1022.36L314.383 984.178Z" fill="#2D3748"/>
<path d="M437.473 1003.79C441.086 994.816 469.933 954.983 478.912 958.596L491.214 963.488C500.193 967.101 511.172 980.034 507.559 989.013L445.161 1144.08C441.548 1153.06 431.34 1157.41 422.361 1153.79L403.43 1146.17C394.451 1142.56 390.101 1132.35 393.714 1123.38L437.473 1003.79Z" fill="#2D3748"/>
<ellipse cx="382.927" cy="700.576" rx="44.1356" ry="57.8921" transform="rotate(15.4231 382.927 700.576)" fill="#EDF2F7"/>
<ellipse cx="344.598" cy="709.417" rx="7.95473" ry="12.293" transform="rotate(-24.8451 344.598 709.417)" fill="#CBD5E0"/>
<ellipse cx="578.124" cy="894.237" rx="15.5569" ry="15.7718" transform="rotate(-15.7466 578.124 894.237)" fill="#2D3748"/>
<path d="M452.387 912.23L394.569 913.286L394.993 918.27L451.471 917.399L452.387 912.23Z" fill="black"/>
<path d="M595.864 786.957C596.595 783.429 593.469 780.309 589.943 781.047L476.578 804.778C474.61 805.19 473.08 806.742 472.695 808.716L451.489 917.505L575.879 883.286L595.864 786.957Z" fill="#EDF2F7"/>
<path d="M394.441 913.297L452.548 912.217L455.547 896.196L394.441 913.297Z" fill="#718096"/>
<path d="M320.084 897.009C312.162 895.273 307.054 887.555 308.553 879.585L310.31 870.245C311.929 861.631 320.558 856.235 329.011 858.549L436.137 887.873C438.169 888.429 440.311 888.541 442.397 888.247C460.71 885.668 457.207 888.854 454.991 902.152C453.955 906.504 453.714 908.167 452.546 910.504C451.656 912.284 447.377 909.433 439.219 906.825L377.45 909.094C376.187 909.14 374.923 909.027 373.688 908.756L320.084 897.009Z" fill="#A0AEC0"/>
<path d="M394.839 760.207C371.006 770.021 349.471 761.181 341.682 755.534C338.762 762.349 337.936 765.6 320.533 772.026C305.626 777.53 292.611 789.55 290.859 814.668C289.457 834.763 283.852 912.474 290.862 958.231C373.109 970.849 421.126 936.229 433.977 917.926H394.839V912.668C409.793 911.734 421.126 909.748 421.126 909.748L418.672 852.091L421.126 863.016L423.462 872.363L430.939 886.555L438.65 888.134L458.511 879.372L465.52 847.829C458.121 828.552 438.883 798.546 430.939 785.461C422.995 772.376 403.991 764.296 394.839 766.633V760.207Z" fill="#D62F2F"/>
<path d="M416.446 882.293C416.446 882.293 388.407 873.726 377.309 869.442L338.872 801.903C337.817 800.295 336.988 798.848 336.419 797.593L338.872 801.903C354.131 825.18 416.446 882.293 416.446 882.293Z" fill="#2D3748" fill-opacity="0.3"/>
<path d="M394.833 917.342V912.669C384.271 916.07 374.972 915.005 365.042 915.005C335.249 915.005 315.975 875.868 308.381 858.344C321.232 899.233 307.213 947.717 290.855 958.232C340.399 963.663 366.802 960.422 404.18 943.044L416.446 935.04L428.713 924.352L449.158 917.342H394.833Z" fill="#2D3748" fill-opacity="0.3"/>
<ellipse cx="482.338" cy="988.487" rx="21.6119" ry="15.7718" transform="rotate(-15.2687 482.338 988.487)" fill="#4A5568"/>
<path d="M419.946 1183.71C412.469 1192.59 401.231 1190.57 394.828 1182.54C391.583 1178.48 391.523 1172.37 390.155 1167.35C386.378 1169.14 383.79 1174.51 382.561 1180.21C380.151 1191.38 390.393 1196.23 395.412 1206.49C398.138 1215.45 407.913 1232.53 419.362 1232.19C429.843 1231.89 452.89 1221.48 435.134 1208.83C430.695 1205.67 423.061 1190.91 419.946 1183.71Z" fill="black"/>
<path d="M529.821 1038.86C522.409 1042.54 511.282 1043.96 506.421 1042.12C501.558 1040.27 497.763 1034.44 494.384 1030.49C491.731 1033.72 487.686 1045.46 489.006 1051.13C491.591 1062.26 507.315 1063.12 516.234 1070.26C522.521 1077.2 538.649 1088.48 548.861 1083.29C558.209 1078.54 574.614 1059.3 553.155 1055.43C547.792 1054.46 535.713 1044.04 529.821 1038.86Z" fill="black"/>
<path d="M361.093 691.592C371.671 678.581 391.952 661.734 391.952 661.734C391.952 661.734 411.493 672.104 419.259 683.236C424.453 690.681 428.604 704.521 428.604 704.521C428.604 704.521 432.023 679.795 430.353 673.89C428.683 667.985 421.327 655.645 414.683 649.002C404.306 638.628 395.345 632.87 380.656 633.002C366.243 633.132 356.104 632.024 343.95 640.152C332.445 647.846 329.894 656.893 323.682 669.294C306.019 704.559 306.522 782.54 306.522 782.54L367.273 800.649C367.273 800.649 370.012 764.632 363.396 746.333C359.893 736.643 355.511 725.806 350.685 723.226C347.05 721.283 347.013 721.851 345.207 720.201C342.091 717.352 340.825 714.87 340.825 710.298C340.825 706.64 343.175 700.333 347.412 701.294C349.395 701.744 351.507 704.521 351.507 704.521C351.507 704.521 357.128 696.469 361.093 691.592Z" fill="#2D3748"/>
<path d="M774.603 330.03L844.721 291.915H703.469L774.603 330.03Z" fill="#2D3748"/>
<path d="M774.603 224.652L844.721 291.915H703.469L774.603 224.652Z" fill="#A0AEC0"/>
<rect x="734.738" y="251.608" width="78.7128" height="71.165" fill="#D62F2F"/>
<path d="M703.469 291.915L774.095 326.693L844.721 291.915V379.357H703.469V291.915Z" fill="#CBD5E0"/>
<path d="M774.603 312.093L844.721 379.356H703.469L774.603 312.093Z" fill="#A0AEC0"/>
<path d="M643.949 643.72L613.247 597.815L632.328 584.59L668.849 637.284L643.949 643.72Z" fill="#4A5568"/>
<path d="M589.832 571.433C589.28 569.294 590.566 567.112 592.705 566.56L668.337 547.027L681.265 597.086L605.633 616.619C603.494 617.171 601.312 615.885 600.76 613.746L589.832 571.433Z" fill="#D62F2F"/>
<path d="M642.9 553.42L675.097 519.977C672.364 558.726 678.825 579.969 700.193 617.15L655.829 603.479L642.9 553.42Z" fill="#D62F2F"/>
<path d="M712.93 549.906C724.777 553.152 729.705 571.94 720.978 580.584" stroke="#A0AEC0" stroke-width="5" stroke-linecap="round"/>
<path d="M720.125 540.66C737.816 545.227 744.958 572.449 731.787 585.112" stroke="#A0AEC0" stroke-width="5" stroke-linecap="round"/>
<path d="M727.648 532.662C751.056 538.063 760.008 572.187 742.267 588.383" stroke="#A0AEC0" stroke-width="5" stroke-linecap="round"/>
<ellipse cx="688.755" cy="568.292" rx="11.1662" ry="50.2338" transform="rotate(-14.4173 688.755 568.292)" fill="#2D3748"/>
<rect width="128.308" height="117.205" rx="23" transform="matrix(-1 0 0 1 229.031 493.138)" fill="#E2E8F0"/>
<path d="M206.391 633.311L179.434 609.59H192.912H206.391V633.311Z" fill="#CBD5E0"/>
<path d="M149.448 577.668L125.214 560.429C115.591 553.584 116.641 538.977 127.144 533.579C137.763 528.121 150.358 535.998 150.097 547.935L149.448 577.668Z" fill="#D62F2F"/>
<path d="M149.452 577.488L147.211 549.032C146.29 537.344 158.118 528.862 168.893 533.483C179.87 538.191 181.689 552.99 172.179 560.217L149.452 577.488Z" fill="#D62F2F"/>
<path d="M205.549 533.852V570.215H197.861V541.149H197.648L189.32 546.369V539.551L198.322 533.852H205.549Z" fill="#D62F2F"/>
<path d="M1278.89 195.49L1220.14 188.069L1178.44 230.113L1157 167.928L1257.45 133.306L1278.89 195.49Z" fill="#CBD5E0"/>
<path d="M1213.47 171.136L1178.3 229.712L1279.62 194.791L1213.47 171.136Z" fill="#A0AEC0"/>
<path d="M1224.67 199.795L1157 167.922L1257.45 133.3L1224.67 199.795Z" fill="#EDF2F7"/>
<path d="M1348.95 681.749L1302.79 625.409L1230 627.644L1263.49 554.006L1382.44 608.111L1348.95 681.749Z" fill="#CBD5E0"/>
<path d="M1311.18 604.651L1230.22 627.174L1350.2 681.747L1311.18 604.651Z" fill="#A0AEC0"/>
<path d="M1296.91 639.709L1263.49 554.001L1382.45 608.106L1296.91 639.709Z" fill="#EDF2F7"/>
<rect width="103.529" height="145" rx="20" transform="matrix(4.99318e-08 1 1 -3.82659e-08 813 760)" fill="#F7FAFC"/>
<path d="M830.539 884L857.434 863.5H843.987H830.539V884Z" fill="#EDF2F7"/>
<rect width="124" height="83" rx="20" transform="matrix(-1 0 0 1 948 771)" fill="#EDF2F7"/>
<circle cx="864.521" cy="812.848" r="7.52087" fill="#D62F2F"/>
<path d="M897.286 794.071L864.703 813.028L902.617 834.355" stroke="#D62F2F" stroke-width="4"/>
<circle cx="902.435" cy="791.521" r="7.52087" fill="#D62F2F"/>
<circle cx="902.435" cy="834.174" r="7.52087" fill="#D62F2F"/>
</g>
<defs>
<clipPath id="clip0_1623_175">
<rect width="1500" height="1400" fill="white"/>
</clipPath>
</defs>
</svg>
